<svg width="17" height="14" viewBox="0 0 17 14" fill="none" xmlns="http://www.w3.org/2000/svg">
<path d="M14.4179 3.74107C14.428 3.88319 14.428 4.02535 14.428 4.16747C14.428 8.50247 11.1507 13.4974 5.16084 13.4974C3.31546 13.4974 1.6012 12.9593 0.15918 12.0253C0.421373 12.0558 0.673447 12.0659 0.945728 12.0659C2.46839 12.0659 3.87008 11.5482 4.98941 10.6649C3.55748 10.6345 2.35748 9.69032 1.94403 8.39081C2.14573 8.42125 2.34739 8.44156 2.55918 8.44156C2.8516 8.44156 3.14406 8.40094 3.41631 8.32991C1.92388 8.02531 0.804528 6.70553 0.804528 5.11163V5.07103C1.23812 5.31469 1.74236 5.46697 2.27678 5.48725C1.39947 4.89841 0.824704 3.89335 0.824704 2.75628C0.824704 2.14716 0.986018 1.58878 1.26839 1.10147C2.87175 3.09131 5.28183 4.39078 7.98431 4.53294C7.9339 4.28928 7.90364 4.0355 7.90364 3.78169C7.90364 1.97457 9.35574 0.502502 11.1608 0.502502C12.0986 0.502502 12.9456 0.89844 13.5406 1.53803C14.2767 1.39591 14.9826 1.12178 15.6078 0.746159C15.3658 1.5076 14.8515 2.14719 14.1759 2.55325C14.8313 2.48222 15.4666 2.29944 16.0515 2.04566C15.6079 2.69538 15.0532 3.27403 14.4179 3.74107Z" fill="black"/>
</svg>
